<?xml version="1.0" encoding="utf-8"?>
<!-- Generator: Adobe Illustrator 23.0.5, SVG Export Plug-In . SVG Version: 6.00 Build 0)  -->
<svg version="1.1" id="Capa_1" xmlns="http://www.w3.org/2000/svg" xmlns:xlink="http://www.w3.org/1999/xlink" x="0px" y="0px"
	 viewBox="0 0 512 127.9" style="enable-background:new 0 0 512 127.9;" xml:space="preserve">
<g>
	<path d="M15.7,8.4v36h37.6v-36h15.7v86.2H53.3V58.1H15.7v36.5H0V8.4H15.7z"/>
	<path d="M143.8,47.6c1.1,3.7,1.7,7.1,1.7,10.2c0,3.1-0.2,5.9-0.5,8.4h-41.7c0.2,5.2,1.5,9.5,3.9,12.8c2.4,3.3,6,4.9,10.9,4.9
		c6.5,0,10.3-2.8,11.6-8.5h15.8c-1.1,6.5-4,11.6-8.9,15.3c-5,3.9-11.2,5.8-18.5,5.8c-8.5,0-15.6-3.1-21.4-9.3
		c-5.9-6.5-8.9-14.7-8.9-24.8c0-10.4,3-18.7,8.9-25c5.7-6,12.8-9,21.4-9c8.9,0,15.9,3.1,20.9,9.4C141,40.6,142.7,43.8,143.8,47.6z
		 M118.1,40.8c-4.4,0-7.9,1.4-10.4,4.3c-2.5,2.9-3.9,6.6-4.4,11.1h27.5c0-7-2.2-11.7-6.6-14.1C122.5,41.2,120.5,40.8,118.1,40.8z"/>
	<path d="M185.5,56.9c5.1,0,11.1,0.8,17.8,2.5V53c0-4.5-0.9-7.9-2.7-10c-1.8-2.2-4.8-3.3-8.9-3.3c-4.1,0-7.3,0.8-9.5,2.5
		c-2.2,1.6-3.3,4-3.3,7h-17.1c0-7.4,2.6-12.7,7.8-15.9c5.2-3.3,12.4-4.9,21.7-4.9c13.3,0,21.9,4.6,25.8,13.9c1.3,3.2,2,7,2,11.3
		v41.1h-13.7l-1.2-8.6c-4.2,7-10.5,10.5-19.1,10.5c-8.3,0-14.8-2-19.4-6.1c-4.3-3.9-6.4-8.8-6.4-14.8c0-6,2.3-10.6,7-13.8
		C170.9,58.5,177.3,56.9,185.5,56.9z M203.3,69.3c-5.2-1.4-10.1-2.1-14.6-2.1c-8.5,0-12.8,2.8-12.8,8.5c0,2.4,1,4.5,2.9,6.2
		c1.9,1.7,5.1,2.6,9.4,2.6c4.3,0,7.8-1.4,10.6-4.3C201.6,77.3,203.1,73.7,203.3,69.3z"/>
	<path d="M283.9,84.6c-4,7.9-10.1,11.8-18.3,11.8c-8.2,0-15.1-3.1-20.7-9.4c-5.8-6.6-8.6-14.9-8.6-25s2.7-18.3,8.2-24.6
		c5.4-6.1,12.1-9.2,20.2-9.2c8.1,0,14.1,3.2,18.2,9.7V3.5h15.8v91.1h-12.9L283.9,84.6z M267.6,42.4c-4.4,0-8.1,1.8-11.1,5.4
		c-3,3.6-4.4,8.4-4.4,14.4c0,6,1.5,10.9,4.5,14.5c3,3.7,6.8,5.5,11.4,5.5c3.8,0,7.2-1.5,10.2-4.5c3.1-3.1,4.6-7,4.6-11.7v-8.4
		c-0.2-4.6-1.7-8.4-4.6-11.3C275.5,43.7,272,42.4,267.6,42.4z"/>
	<path d="M322.8,9.2c0-2.8,0.8-5.1,2.5-6.7c1.7-1.6,4.1-2.5,7.2-2.5c3,0,5.4,0.8,7.1,2.5c1.7,1.6,2.6,3.9,2.6,6.7
		c0,2.8-0.9,5.1-2.6,6.7c-1.7,1.6-4.1,2.5-7.1,2.5c-3.1,0-5.5-0.8-7.2-2.5C323.7,14.2,322.8,12,322.8,9.2z M324.7,29.9h15.7v64.7
		h-15.7V29.9z"/>
	<path d="M382.3,41.2c4.3-8.6,11.1-12.9,20.5-12.9c8,0,14,2.6,18,7.8c4,5.2,6,12.1,6,20.7v37.7h-15.7V56.9c0-4.8-1.2-8.4-3.5-10.8
		c-2.3-2.4-5.5-3.7-9.7-3.7c-4.2,0-7.7,1.9-10.7,5.6c-3,3.7-4.5,9.3-4.7,16.7v29.9h-15.7V30h13.7L382.3,41.2z"/>
	<path d="M455.3,68.2c-5.2-4.4-7.8-10-7.8-16.6c0-7,2.7-12.7,8.2-17c5.3-4.2,11.4-6.2,18.3-6.2c6.9,0,12.6,1.3,17.2,3.9
		c0.5-5,2.7-9.1,6.5-12.2c3.7-3.1,8.1-4.6,13.2-4.6l-0.8,15c-7.6,0-11.6,2.5-11.8,7.6c3.3,4.1,4.9,8.2,4.9,12.5s-0.8,7.8-2.3,10.7
		c-1.5,2.9-3.5,5.3-6.1,7.2c-5.3,4.3-11.8,6.4-19.4,6.4c-4.3,0-8.3-0.7-11.8-2c-3.5,1.1-5.3,3.2-5.3,6.4c0,4,3.4,6,10.1,6h21.7
		c14.7,0,22.1,5.1,22.1,15.4c0,3.5-0.9,6.8-2.6,10.2c-1.7,3.3-4.2,6.3-7.5,8.8c-7.3,5.7-16.4,8.5-27.4,8.5
		c-10.6,0-19.3-2.2-25.9-6.5c-6.2-4.2-9.3-9.3-9.3-15.3c0-4,1.2-7.2,3.7-9.5c2.4-2.3,5.6-3.8,9.6-4.4c-5.2-3.2-7.8-7.1-7.8-11.8
		c0-3.1,1-5.7,2.9-7.8C449.6,70.5,452.2,69,455.3,68.2z M467.2,96.1c-8.3,0.4-12.5,3.5-12.5,9.4c0,3,1.7,5.4,5.2,7.2
		c3.5,1.8,7.6,2.7,12.4,2.7c4.8,0,8.5-0.4,11.2-1.2c2.7-0.8,5-1.9,6.8-3.2c4-2.7,6-5.8,6-9.6c0-1.6-0.6-2.9-1.7-3.9
		c-1.1-1-2.7-1.5-4.8-1.5H467.2z M487.6,51.3c0-3.6-1-6.5-3-8.8c-2-2.3-5-3.4-9.1-3.4c-4.1,0-7.2,1.1-9.3,3.4
		c-2.1,2.3-3.2,5.2-3.2,8.8c0,3.6,1.1,6.5,3.2,8.8c2.1,2.3,5.2,3.5,9.3,3.5c4.1,0,7.1-1.1,9.1-3.5C486.6,57.9,487.6,54.9,487.6,51.3
		z"/>
</g>
</svg>
