<?xml version="1.0" encoding="utf-8"?>
<!-- Generator: Adobe Illustrator 23.0.5, SVG Export Plug-In . SVG Version: 6.00 Build 0)  -->
<svg version="1.1" id="Layer_1" xmlns="http://www.w3.org/2000/svg" xmlns:xlink="http://www.w3.org/1999/xlink" x="0px" y="0px"
	 viewBox="0 0 348.7 109.6" style="enable-background:new 0 0 348.7 109.6;" xml:space="preserve">
<style type="text/css">
	.st0{enable-background:new    ;}
</style>
<g class="st0">
	<path d="M130,0.4c6.1,0,11.7,1,16.7,3c5.1,2,9.4,5,13.1,8.9c7.7,8.2,11.5,20,11.5,35.4c0,15.5-3.8,27.4-11.5,35.8
		c-7.3,7.9-17.3,11.8-29.9,11.8c-12.6,0-22.5-4-29.8-12.1c-7.7-8.3-11.5-20.2-11.5-35.5c0-15.5,3.8-27.4,11.5-35.7
		C107.3,4.3,117.3,0.4,130,0.4z M154.2,47.9c0-10.4-2.2-18.5-6.5-24.2c-4.4-5.7-10.2-8.5-17.6-8.5c-7.4,0-13.3,2.8-17.7,8.5
		c-4.4,5.7-6.6,13.7-6.6,24.2c0,10.4,2.2,18.5,6.6,24c4.4,5.6,10.3,8.4,17.7,8.4c7.4,0,13.3-2.8,17.6-8.4
		C152,66.4,154.2,58.4,154.2,47.9z"/>
	<path d="M206.1,2.2V59c0,7.5,1.9,12.9,5.7,16.2c3.8,3.3,8.7,4.9,14.7,4.9c6,0,10.9-1.6,14.7-4.9c3.8-3.3,5.7-8.7,5.7-16.2V2.2h16.6
		V59c0,11.6-3.2,20.6-9.7,26.9c-6.5,6.3-15.5,9.5-27.3,9.5c-11.7,0-20.8-3.2-27.3-9.5c-6.5-6.3-9.7-15.3-9.7-26.9V2.2H206.1z"/>
	<path d="M275.7,2.2h73.1v14.3h-28.2v76.8h-16.6V16.5h-28.2V2.2z"/>
</g>
<g>
	<g class="st0">
		<path d="M20.1,36.1c-2.6,1-4.7,1.6-6.2,1.6c-1.5,0-2.8-0.2-4-0.5c-1.1-0.4-2.2-0.9-3-1.6c-1.8-1.6-2.8-3.9-2.8-6.8V12.4H0V7.7h4.1
			V0h7.1v7.7h7.9v4.7h-7.9v16.1c0,2.4,1.1,3.6,3.4,3.6c1.2,0,2.7-0.3,4.5-1L20.1,36.1z"/>
		<path d="M34.4,13.4c1.8-4.2,4.4-6.3,7.9-6.3c0.7,0,1.5,0.1,2.6,0.4l-0.1,7.1c-1.1-0.2-2.2-0.4-3.3-0.4c-4.7,0-7.1,3.3-7.1,9.8
			v12.8h-7.1V7.6h7.1V13.4z"/>
		<path d="M55.9,7.7l7,21l6.1-21h7.2L65.1,42.1c-1.2,3.5-2.6,6-4.2,7.5c-1.7,1.5-3.8,2.3-6.3,2.3c-2.6,0-5.2-0.6-7.8-1.9v-6.2
			c2.1,1.3,4.2,2,6.3,2c1.4,0,2.6-0.6,3.5-1.7c0.9-1.1,1.6-2.6,2.2-4.4l0.9-2.8L47.9,7.7H55.9z"/>
	</g>
	<g class="st0">
		<path d="M1.3,53.3h7.1v41.2H1.3V53.3z"/>
		<path d="M29.2,77.5c2.3,0,5,0.4,8,1.1v-2.9c0-2-0.4-3.5-1.2-4.5c-0.8-1-2.2-1.5-4-1.5c-1.9,0-3.3,0.4-4.3,1.1
			c-1,0.7-1.5,1.8-1.5,3.2h-7.7c0-3.3,1.2-5.7,3.5-7.2c2.3-1.5,5.6-2.2,9.8-2.2c6,0,9.9,2.1,11.6,6.3c0.6,1.4,0.9,3.1,0.9,5.1v18.5
			h-6.2l-0.5-3.9c-1.9,3.2-4.8,4.7-8.6,4.7c-3.8,0-6.7-0.9-8.8-2.8c-1.9-1.8-2.9-4-2.9-6.7c0-2.7,1.1-4.8,3.2-6.2
			C22.6,78.2,25.5,77.5,29.2,77.5z M37.2,83.1c-2.4-0.6-4.6-1-6.6-1c-3.8,0-5.8,1.3-5.8,3.8c0,1.1,0.4,2,1.3,2.8
			c0.9,0.8,2.3,1.2,4.2,1.2c1.9,0,3.5-0.7,4.8-2C36.5,86.7,37.1,85.1,37.2,83.1z"/>
		<path d="M58.2,65.3l7,21l6.1-21h7.2L67.4,99.8c-1.2,3.5-2.6,6-4.2,7.5c-1.7,1.5-3.8,2.3-6.3,2.3c-2.6,0-5.2-0.6-7.8-1.9v-6.2
			c2.1,1.3,4.2,2,6.3,2c1.4,0,2.6-0.6,3.5-1.7c0.9-1.1,1.6-2.6,2.2-4.4l0.9-2.8L50.2,65.3H58.2z"/>
	</g>
</g>
</svg>
