<?xml version="1.0" encoding="utf-8"?>
<!-- Generator: Adobe Illustrator 23.0.5, SVG Export Plug-In . SVG Version: 6.00 Build 0)  -->
<svg version="1.1" id="Layer_1" xmlns="http://www.w3.org/2000/svg" xmlns:xlink="http://www.w3.org/1999/xlink" x="0px" y="0px"
	 viewBox="0 0 600 600" style="enable-background:new 0 0 600 600;" xml:space="preserve">
<style type="text/css">
	.st0{fill:#FFFFFF;}
</style>
<g>
	<rect x="0.5" y="1" width="599" height="599"/>
	<path d="M599,1.5v598H1V1.5H599 M600,0.5H0v600h600V0.5L600,0.5z"/>
</g>
<g>
	<path class="st0" d="M460.68,97.51c32.82,0,59.51,26.7,59.51,59.51s-26.7,59.51-59.51,59.51s-59.51-26.7-59.51-59.51
		S427.86,97.51,460.68,97.51 M460.68,74.51c-45.57,0-82.51,36.94-82.51,82.51s36.94,82.51,82.51,82.51s82.51-36.94,82.51-82.51
		S506.25,74.51,460.68,74.51L460.68,74.51z"/>
</g>
<g>
	<path class="st0" d="M189.49,246.37c0.24,0,0.47,0.03,0.69,0.08L316,421.63c5.49,10.1,16.03,16.45,27.74,16.45
		c10.33,0,19.76-4.92,25.63-13.13l94.73-91.8l0.68-0.65l0.62-0.71c0.71-0.81,1.57-0.98,2.17-0.98c0.71,0,1.34,0.24,1.88,0.71
		l0.13,0.11l0.13,0.11l318.69,271.1c2.24,8.8,5.53,33.48,7.23,69.97c1.72,36.91,0.71,61.96-0.7,70.64L571.47,998.53
		c-0.71,0.81-1.57,0.98-2.17,0.98c-0.71,0-1.34-0.24-1.88-0.71L387.46,841.16l-17.3-15.16L355,843.31l-38.48,43.93L13.35,621.67
		c-4.53-3.96-11.81-8.41-25.36-16.57c-8.99-5.41-19.18-11.55-27.86-17.36c-2.89-1.94-5.27-3.61-7.21-5.03l234.87-335.8
		C188.39,246.47,189.02,246.37,189.49,246.37L189.49,246.37 M189.49,223.37c-7.2,0-14.36,2.99-19.47,8.82L-75,582.5
		c-9.41,10.75,62.45,47.06,73.19,56.47l304.33,266.58c4.07,3.57,9.12,5.32,14.14,5.32c5.97,0,11.91-2.48,16.16-7.32l39.49-45.09
		l179.96,157.64c4.91,4.3,10.99,6.41,17.04,6.41c7.2,0,14.35-2.99,19.47-8.82l226.24-258.28c9.41-10.75,2.74-157.5-8.01-166.91
		L484.59,314.23c-4.91-4.3-10.99-6.41-17.04-6.41c-7.2,0-14.35,2.99-19.47,8.82l-96.68,93.7c-1.59,3.18-4.63,4.75-7.67,4.75
		c-3.26,0-6.51-1.8-7.95-5.34L206.53,229.78C201.62,225.48,195.54,223.37,189.49,223.37L189.49,223.37z"/>
</g>
</svg>
