<?xml version="1.0" encoding="utf-8"?>
<!-- Generator: Adobe Illustrator 23.0.5, SVG Export Plug-In . SVG Version: 6.00 Build 0)  -->
<svg version="1.1" id="Layer_1" xmlns="http://www.w3.org/2000/svg" xmlns:xlink="http://www.w3.org/1999/xlink" x="0px" y="0px"
	 viewBox="0 0 290 290" style="enable-background:new 0 0 290 290;" xml:space="preserve">
<path d="M155.5,95.1c16,0,28.9-13,28.9-28.9c0-16-12.9-28.9-28.9-28.9s-28.9,12.9-28.9,28.9S139.5,95.1,155.5,95.1z"/>
<path d="M343,171.8l-77.3-41.4L174.2,207c-2.6,2.1-6.3,2.2-8.9,0.1L55.9,119.2L-53,216.4V290h396V171.8z"/>
<path d="M60.1,104.5l109.6,88l90.7-76c2.2-1.8,5.3-2.2,7.8-0.8l74.8,40.1V0H-53v197.7l104-92.9C53.6,102.5,57.4,102.4,60.1,104.5z
	 M155.5,23.3c23.7,0,42.9,19.2,42.9,42.9s-19.2,42.9-42.9,42.9s-42.9-19.2-42.9-42.9S131.8,23.3,155.5,23.3z"/>
</svg>
