<?xml version="1.0" encoding="utf-8"?>
<!-- Generator: Adobe Illustrator 23.0.5, SVG Export Plug-In . SVG Version: 6.00 Build 0)  -->
<svg version="1.1" id="Layer_1" xmlns="http://www.w3.org/2000/svg" xmlns:xlink="http://www.w3.org/1999/xlink" x="0px" y="0px"
	 viewBox="0 0 300.6 290" style="enable-background:new 0 0 300.6 290;" xml:space="preserve">
<path d="M160.8,94.6c16,0,28.9-13,28.9-28.9c0-16-12.9-28.9-28.9-28.9s-28.9,12.9-28.9,28.9S144.8,94.6,160.8,94.6z"/>
<path d="M271,130.4L179.5,207c-2.6,2.1-6.3,2.2-8.9,0.1L61.2,119.2L0,173.8V290h300.6V146.2L271,130.4z"/>
<path d="M56.3,104.8c2.6-2.3,6.4-2.4,9.1-0.3l109.6,88l90.7-76c2.2-1.8,5.3-2.2,7.8-0.8l27.1,14.5V0H0v155.1L56.3,104.8z
	 M160.8,23.3c23.7,0,42.9,19.2,42.9,42.9s-19.2,42.9-42.9,42.9c-23.7,0-42.9-19.2-42.9-42.9S137.1,23.3,160.8,23.3z"/>
</svg>
