<?xml version="1.0" encoding="utf-8"?>
<!-- Generator: Adobe Illustrator 23.0.5, SVG Export Plug-In . SVG Version: 6.00 Build 0)  -->
<svg version="1.1" id="Layer_1" xmlns="http://www.w3.org/2000/svg" xmlns:xlink="http://www.w3.org/1999/xlink" x="0px" y="0px"
	 viewBox="0 0 600 600" style="enable-background:new 0 0 600 600;" xml:space="preserve">
<style type="text/css">
	.st0{fill:#FFFFFF;}
</style>
<g>
	<path class="st0" d="M-430.51,246.37c0.24,0,0.47,0.03,0.69,0.08L-304,421.63c5.49,10.1,16.03,16.45,27.74,16.45
		c10.33,0,19.76-4.92,25.63-13.13l94.73-91.8l0.68-0.65l0.62-0.71c0.71-0.81,1.57-0.98,2.17-0.98c0.71,0,1.34,0.24,1.88,0.71
		l0.13,0.11l0.13,0.11l318.69,271.1c2.24,8.8,5.53,33.48,7.23,69.97c1.72,36.91,0.71,61.96-0.7,70.64L-48.53,998.53
		c-0.71,0.81-1.57,0.98-2.17,0.98c-0.71,0-1.34-0.24-1.88-0.71l-179.96-157.64l-17.3-15.16l-15.16,17.3l-38.48,43.93l-303.17-265.57
		c-4.53-3.96-11.81-8.41-25.36-16.57c-8.99-5.41-19.18-11.55-27.86-17.36c-2.89-1.94-5.27-3.61-7.21-5.03l234.87-335.8
		C-431.61,246.47-430.98,246.37-430.51,246.37L-430.51,246.37 M-430.51,223.37c-7.2,0-14.36,2.99-19.47,8.82L-695,582.5
		c-9.41,10.75,62.45,47.06,73.19,56.47l304.33,266.58c4.07,3.57,9.12,5.32,14.14,5.32c5.97,0,11.91-2.48,16.16-7.32l39.49-45.09
		l179.96,157.64c4.91,4.3,10.99,6.41,17.04,6.41c7.2,0,14.35-2.99,19.47-8.82l226.24-258.28c9.41-10.75,2.74-157.5-8.01-166.91
		l-322.41-274.27c-4.91-4.3-10.99-6.41-17.04-6.41c-7.2,0-14.35,2.99-19.47,8.82l-96.68,93.7c-1.59,3.18-4.63,4.75-7.67,4.75
		c-3.26,0-6.51-1.8-7.95-5.34l-129.25-179.97C-418.38,225.48-424.46,223.37-430.51,223.37L-430.51,223.37z"/>
</g>
<g>
	<rect x="-0.58" y="0.16" width="599" height="599"/>
	<path d="M597.92,0.66v598h-598v-598H597.92 M598.92-0.34h-600v600h600V-0.34L598.92-0.34z"/>
</g>
<g>
	<path class="st0" d="M312.98,136.15v313.52h68.21c6.26,0,10.74,1.2,13.45,3.6c2.71,2.4,4.07,5.58,4.07,9.54
		c0,3.75-1.36,6.88-4.07,9.39c-2.71,2.5-7.2,3.75-13.45,3.75H218.18c-6.26,0-10.75-1.25-13.46-3.75c-2.71-2.5-4.07-5.63-4.07-9.39
		c0-3.96,1.35-7.14,4.07-9.54c2.71-2.4,7.2-3.6,13.46-3.6h68.21V136.15H178.75v91.05c0,6.47-1.2,11.06-3.6,13.77
		c-2.4,2.71-5.58,4.07-9.54,4.07c-3.76,0-6.88-1.35-9.39-4.07c-2.5-2.71-3.76-7.3-3.76-13.77V109.86H446.9V227.2
		c0,6.47-1.2,11.06-3.6,13.77c-2.4,2.71-5.58,4.07-9.54,4.07c-3.96,0-7.15-1.35-9.54-4.07c-2.4-2.71-3.6-7.3-3.6-13.77v-91.05
		H312.98z"/>
</g>
<g>
	<rect x="-0.43" y="-0.3" width="599.43" height="599.43"/>
	<path class="st0" d="M155.94,117.01h286.29c5.83,0,10.99,4.2,11.8,10.04c0.81,6.92-4.61,12.88-11.26,12.88H310.81V460.8h58.18
		c5.83,0,10.98,4.2,11.8,10.04c0.81,6.92-4.61,12.88-11.26,12.88H229.85c-5.83,0-10.98-4.2-11.8-10.04
		c-0.81-6.92,4.61-12.88,11.26-12.88h58.59V139.8H156.35c-5.83,0-10.98-4.2-11.8-10.04C143.73,122.84,149.16,117.01,155.94,117.01z"
		/>
</g>
</svg>
