<?xml version="1.0" encoding="utf-8"?>
<!-- Generator: Adobe Illustrator 23.0.5, SVG Export Plug-In . SVG Version: 6.00 Build 0)  -->
<svg version="1.1" id="Layer_1" xmlns="http://www.w3.org/2000/svg" xmlns:xlink="http://www.w3.org/1999/xlink" x="0px" y="0px"
	 viewBox="0 0 442 442" style="enable-background:new 0 0 442 442;" xml:space="preserve">
<style type="text/css">
	.st0{fill:#FFFFFF;}
</style>
<rect width="442" height="442"/>
<path class="st0" d="M115.3,86.5l211.1,0c4.3,0,8.1,3.1,8.7,7.4c0.6,5.1-3.4,9.5-8.3,9.5h-97.3v236.6l42.9,0c4.3,0,8.1,3.1,8.7,7.4
	c0.6,5.1-3.4,9.5-8.3,9.5h-103c-4.3,0-8.1-3.1-8.7-7.4c-0.6-5.1,3.4-9.5,8.3-9.5h43.2V103.3l-97,0c-4.3,0-8.1-3.1-8.7-7.4
	C106.3,90.8,110.3,86.5,115.3,86.5z"/>
</svg>
