<?xml version="1.0" encoding="utf-8"?>
<!-- Generator: Adobe Illustrator 23.0.5, SVG Export Plug-In . SVG Version: 6.00 Build 0)  -->
<svg version="1.1" id="Layer_1" xmlns:sketch="http://www.bohemiancoding.com/sketch/ns"
	 xmlns="http://www.w3.org/2000/svg" xmlns:xlink="http://www.w3.org/1999/xlink" x="0px" y="0px" viewBox="0 0 18.7 27"
	 style="enable-background:new 0 0 18.7 27;" xml:space="preserve">
<style type="text/css">
	.st0{fill-rule:evenodd;clip-rule:evenodd;}
	.st1{fill-rule:evenodd;clip-rule:evenodd;fill:#FFFFFF;}
</style>
<title>icon 26 trash can</title>
<desc>Created with Sketch.</desc>
<path class="st0" d="M0.8,5v19c0,1.7,1.3,3,3,3h11c1.7,0,3-1.3,3-3V5H0.8L0.8,5z"/>
<polygon class="st1" points="4.8,8 4.8,24 5.8,24 5.8,8 4.8,8 "/>
<polygon class="st1" points="8.8,8 8.8,24 9.8,24 9.8,8 8.8,8 "/>
<polygon class="st1" points="12.8,8 12.8,24 13.8,24 13.8,8 12.8,8 "/>
<polygon class="st0" points="14,1.3 12.7,0 6,0 4.7,1.3 0,1.3 0,4 18.7,4 18.7,1.3 "/>
</svg>
